<?xml version="1.0" encoding="utf-8"?>
<!-- Generator: Adobe Illustrator 24.0.1, SVG Export Plug-In . SVG Version: 6.00 Build 0)  -->
<svg version="1.1" id="레이어_1" xmlns="http://www.w3.org/2000/svg" xmlns:xlink="http://www.w3.org/1999/xlink" x="0px"
	 y="0px" viewBox="0 0 74 77" style="enable-background:new 0 0 74 77;" xml:space="preserve">
<style type="text/css">
	.st0{fill:#3D3A39;}
</style>
<g>
	<path class="st0" d="M70.85,51.51C70.85,51.51,70.84,51.51,70.85,51.51l-3.84-0.01c-1.3,0-2.35-1.06-2.35-2.36l0.05-15.33
		c0-1.29,1.06-2.35,2.35-2.35l3.84,0.01c0.63,0,1.22,0.25,1.66,0.69c0.44,0.45,0.69,1.04,0.68,1.67L73.2,49.16
		C73.2,50.45,72.14,51.51,70.85,51.51z M67.06,33.49c-0.17,0-0.31,0.14-0.31,0.31L66.7,49.14c0,0.17,0.14,0.31,0.31,0.31l3.83,0.01
		l0,1.02v-1.02c0.17,0,0.31-0.14,0.31-0.31l0.05-15.34c0-0.11-0.05-0.18-0.09-0.22c-0.04-0.04-0.11-0.09-0.22-0.09L67.06,33.49z"/>
	<path class="st0" d="M70.26,33.53C70.26,33.53,70.26,33.53,70.26,33.53c-0.57,0-1.02-0.46-1.02-1.02l0.09-30.05
		c-1.51,0.23-4.13,1.04-4.14,3.87l-0.05,17.19l2.78,2.26c0.24,0.19,0.38,0.49,0.38,0.79l-0.02,5.93c0,0.56-0.46,1.02-1.02,1.02
		c0,0,0,0,0,0c-0.56,0-1.02-0.46-1.02-1.02l0.01-5.45l-2.78-2.26C63.24,24.59,63.1,24.3,63.1,24l0.05-17.68c0.01-4.74,4.72-6,7.2-6
		c0.28-0.03,0.53,0.11,0.72,0.3c0.19,0.19,0.3,0.45,0.3,0.72l-0.1,31.17C71.28,33.08,70.82,33.53,70.26,33.53z"/>
	<path class="st0" d="M8.49,51.32C8.48,51.32,8.48,51.32,8.49,51.32l-1.84,0c-0.63,0-1.22-0.25-1.66-0.7
		c-0.44-0.45-0.69-1.04-0.68-1.67l0.74-31.69C1.75,16.38,0.95,13.47,1,11.94L1.03,1.92c0-0.56,0.46-1.02,1.02-1.02c0,0,0,0,0,0
		c0.56,0,1.02,0.46,1.02,1.02L3.04,11.98c-0.01,0.33,0.03,2.98,3.13,3.43c0.23,0.03,0.45,0.13,0.61,0.29
		c0.2,0.2,0.32,0.47,0.32,0.75L6.34,48.98c0,0.09,0.06,0.17,0.09,0.2c0.03,0.03,0.11,0.09,0.22,0.09l1.83,0h0
		c0.11,0,0.18-0.05,0.22-0.09c0.04-0.04,0.09-0.11,0.09-0.22L8.23,16.45c0-0.28,0.11-0.55,0.3-0.75c0.18-0.18,0.42-0.28,0.68-0.29
		c3.15-0.47,3.11-3.25,3.1-3.37l0.03-10.09c0-0.56,0.46-1.02,1.02-1.02c0,0,0,0,0,0c0.56,0,1.02,0.46,1.02,1.02l-0.03,10.06
		c0.05,1.49-0.78,4.4-4.07,5.26l0.55,31.68c0,0.65-0.25,1.24-0.69,1.68C9.7,51.08,9.11,51.32,8.49,51.32z"/>
	<path class="st0" d="M7.68,11.42C7.68,11.42,7.68,11.42,7.68,11.42c-0.57,0-1.02-0.46-1.02-1.02l0.03-8.47
		c0-0.56,0.46-1.02,1.02-1.02c0,0,0,0,0,0c0.56,0,1.02,0.46,1.02,1.02L8.7,10.41C8.7,10.97,8.24,11.42,7.68,11.42z"/>
	<path class="st0" d="M13.34,11.44C13.34,11.44,13.34,11.44,13.34,11.44L2.02,11.41c-0.56,0-1.02-0.46-1.02-1.02
		c0-0.56,0.46-1.02,1.02-1.02c0,0,0,0,0,0L13.34,9.4c0.56,0,1.02,0.46,1.02,1.02C14.36,10.99,13.9,11.44,13.34,11.44z"/>
	<path class="st0" d="M37.12,50.13c0,0-0.07,0-0.07,0c-6.39-0.02-12.39-2.53-16.9-7.06c-4.5-4.53-6.98-10.55-6.96-16.94
		C13.23,12.98,23.96,2.28,37.11,2.28C43.58,2.3,49.58,4.8,54.09,9.34c4.5,4.53,6.98,10.55,6.96,16.94
		C61,39.43,50.27,50.13,37.12,50.13z M37.18,4.32c-12.1,0-21.92,9.79-21.95,21.82c-0.02,5.85,2.24,11.35,6.36,15.49
		c4.12,4.15,9.61,6.44,15.46,6.46l0.07,1.02v-1.02c12.03,0,21.85-9.79,21.88-21.82c0.02-5.85-2.24-11.35-6.36-15.49
		C48.52,6.63,43.03,4.34,37.18,4.32z"/>
	<path class="st0" d="M37.12,44.15c0,0-0.06,0-0.06,0c-4.79-0.01-9.3-1.89-12.68-5.29c-3.38-3.4-5.23-7.91-5.22-12.71
		c0.03-9.87,8.08-17.9,17.95-17.9c9.95,0.03,17.98,8.11,17.95,18C55.03,36.12,46.98,44.15,37.12,44.15z M37.16,10.29
		c-8.8,0-15.93,7.12-15.96,15.86c-0.01,4.25,1.63,8.25,4.63,11.26c3,3.01,6.99,4.68,11.24,4.69l0.05,1.02v-1.02
		c8.75,0,15.88-7.12,15.91-15.86C53.05,17.48,45.94,10.32,37.16,10.29z"/>
	<g>
		<path class="st0" d="M16.05,65.86H3.19V55.24h2.5v3.09h7.86v-3.09h2.5V65.86z M19.84,67.71h2.5v8.87H3.94v-8.87h2.5v2.19h13.4
			V67.71z M13.55,63.77v-3.4H5.69v3.4H13.55z M19.84,74.54v-2.63H6.44v2.63H19.84z M25.43,61.66h-3.09v4.84h-2.55V54.85h2.55v4.36
			h3.09V61.66z"/>
		<path class="st0" d="M36.98,73.2c2.09,0,4.36-0.41,5.7-1.03v2.32c-1.34,0.67-3.66,1.06-5.77,1.06h-8.66v-19.9h12.71V58H30.79v6.26
			h9.77v2.35h-9.77v6.6H36.98z M50.22,66.22h-3.09v10.64h-2.55V54.85h2.55v8.92h3.09V66.22z"/>
		<path class="st0" d="M52.31,60.68c0-3.3,2.68-5.59,6.91-5.59c4.2,0,6.88,2.29,6.88,5.59c0,3.32-2.68,5.59-6.88,5.59
			C54.99,66.27,52.31,64,52.31,60.68z M54.14,68.02h18.4v8.56h-18.4V68.02z M63.55,60.68c0-2.19-1.78-3.48-4.33-3.48
			c-2.58,0-4.36,1.29-4.36,3.48c0,2.19,1.78,3.48,4.36,3.48C61.77,64.16,63.55,62.87,63.55,60.68z M69.99,74.41v-4.23h-13.3v4.23
			H69.99z M69.99,54.85h2.55v11.96h-2.55V54.85z"/>
	</g>
</g>
</svg>
