<?xml version="1.0" encoding="utf-8"?>
<!-- Generator: Adobe Illustrator 24.0.1, SVG Export Plug-In . SVG Version: 6.00 Build 0)  -->
<svg version="1.1" id="레이어_1" xmlns="http://www.w3.org/2000/svg" xmlns:xlink="http://www.w3.org/1999/xlink" x="0px"
	 y="0px" viewBox="0 0 461 117" style="enable-background:new 0 0 461 117;" xml:space="preserve">
<style type="text/css">
	.st0{enable-background:new    ;}
	.st1{fill:#3D3A39;}
</style>
<g class="st0">
	<path class="st1" d="M245.9,60.6h-48.7V20.4h9.5v11.7h29.7V20.4h9.5V60.6z M260.2,67.6h9.5v33.6H200V67.6h9.5v8.3h50.7V67.6z
		 M236.4,52.7V39.8h-29.7v12.9H236.4z M260.2,93.4v-9.9h-50.7v9.9H260.2z M281.4,44.7h-11.7V63H260V18.9h9.7v16.5h11.7V44.7z"/>
	<path class="st1" d="M325.1,88.4c7.9,0,16.5-1.6,21.6-3.9v8.8c-5.1,2.5-13.8,4-21.8,4H292V22h48.1v8.9h-38.4v23.7h37v8.9h-37v25
		H325.1z M375.2,61.9h-11.7v40.3h-9.7V18.9h9.7v33.7h11.7V61.9z"/>
	<path class="st1" d="M383.1,41c0-12.5,10.1-21.2,26.1-21.2c15.9,0,26,8.7,26,21.2c0,12.6-10.1,21.2-26,21.2
		C393.3,62.1,383.1,53.6,383.1,41z M390,68.8h69.6v32.4H390V68.8z M425.6,41c0-8.3-6.7-13.2-16.4-13.2c-9.8,0-16.5,4.9-16.5,13.2
		s6.7,13.2,16.5,13.2C418.9,54.1,425.6,49.3,425.6,41z M450,93V77h-50.3v16H450z M450,18.9h9.7v45.3H450V18.9z"/>
</g>
<g>
	<path class="st1" d="M159.6,117C159.6,117,159.6,117,159.6,117l-8.8,0c-3,0-5.4-2.4-5.4-5.4l0.1-35.1c0-3,2.4-5.4,5.4-5.4l8.8,0
		c1.4,0,2.8,0.6,3.8,1.6c1,1,1.6,2.4,1.6,3.8l-0.1,35C165,114.6,162.6,117,159.6,117z M151,75.8c-0.4,0-0.7,0.3-0.7,0.7l-0.1,35.1
		c0,0.4,0.3,0.7,0.7,0.7l8.8,0v2.3v-2.3c0.4,0,0.7-0.3,0.7-0.7l0.1-35c0-0.3-0.1-0.4-0.2-0.5c-0.1-0.1-0.3-0.2-0.5-0.2L151,75.8z"/>
	<path class="st1" d="M158.3,75.9L158.3,75.9c-1.3,0-2.3-1.1-2.3-2.3l0.2-68.7c-3.4,0.5-9.4,2.4-9.5,8.9L146.6,53l6.4,5.2
		c0.6,0.4,0.9,1.1,0.9,1.8l0,13.6c0,1.3-1.1,2.3-2.3,2.3c0,0,0,0,0,0c-1.3,0-2.3-1.1-2.3-2.3l0-12.5l-6.4-5.2
		c-0.6-0.4-0.9-1.1-0.9-1.8l0.1-40.4C142.1,2.9,152.8,0,158.5,0c0.6-0.1,1.2,0.2,1.6,0.7c0.4,0.4,0.7,1,0.7,1.6l-0.2,71.2
		C160.6,74.9,159.6,75.9,158.3,75.9z"/>
	<path class="st1" d="M17.1,116.6C17.1,116.6,17.1,116.6,17.1,116.6l-4.2,0c-1.4,0-2.8-0.6-3.8-1.6s-1.6-2.4-1.6-3.8l1.7-72.4
		c-7.5-2-9.4-8.7-9.2-12.1L0.1,3.7c0-1.3,1-2.3,2.3-2.3l0,0c1.3,0,2.3,1,2.3,2.3l-0.1,23c0,0.8,0.1,6.8,7.2,7.8
		c0.5,0.1,1,0.3,1.4,0.7c0.4,0.5,0.7,1.1,0.7,1.7l-1.8,74.4c0,0.2,0.1,0.4,0.2,0.5s0.3,0.2,0.5,0.2l4.2,0l0,0c0.2,0,0.4-0.1,0.5-0.2
		s0.2-0.3,0.2-0.5l-1.3-74.3c0-0.6,0.2-1.3,0.7-1.7c0.4-0.4,1-0.6,1.5-0.7c7.2-1.1,7.1-7.4,7.1-7.7l0.1-23.1c0-1.3,1-2.3,2.3-2.3
		c0,0,0,0,0,0c1.3,0,2.3,1,2.3,2.3l-0.1,23c0.1,3.4-1.8,10-9.3,12l1.3,72.4c0,1.5-0.6,2.8-1.6,3.8C19.9,116,18.5,116.6,17.1,116.6z"
		/>
	<path class="st1" d="M15.3,25.4L15.3,25.4c-1.3,0-2.3-1-2.3-2.3L13,3.7c0-1.3,1.1-2.3,2.3-2.3c0,0,0,0,0,0c1.3,0,2.3,1,2.3,2.3
		l-0.1,19.3C17.6,24.4,16.5,25.4,15.3,25.4z"/>
	<path class="st1" d="M28.2,25.4C28.2,25.4,28.2,25.4,28.2,25.4L2.3,25.4C1,25.4,0,24.3,0,23c0-1.3,1-2.3,2.3-2.3c0,0,0,0,0,0
		l25.9,0.1c1.3,0,2.3,1,2.3,2.3C30.5,24.4,29.5,25.4,28.2,25.4z"/>
	<path class="st1" d="M82.6,113.8h-0.2c-14.6,0-28.3-5.8-38.6-16.1C33.5,87.4,27.8,73.6,27.9,59C28,28.9,52.5,4.5,82.6,4.5
		c14.8,0,28.5,5.8,38.8,16.1s15.9,24.1,15.9,38.7C137.1,89.4,112.6,113.8,82.6,113.8z M82.7,9.1C55,9.1,32.6,31.5,32.5,59
		c0,13.4,5.1,25.9,14.5,35.4c9.4,9.5,22,14.7,35.3,14.8l0.2,2.3v-2.3c27.5,0,49.9-22.4,50-49.9c0-13.4-5.1-25.9-14.5-35.4
		C108.6,14.4,96.1,9.2,82.7,9.1z"/>
	<path class="st1" d="M82.6,100.2h-0.1c-11,0-21.3-4.3-29-12.1S41.5,70,41.5,59c0.1-22.5,18.5-40.9,41-40.9
		c22.7,0.1,41.1,18.5,41,41.2C123.5,81.8,105.1,100.2,82.6,100.2z M82.7,22.8c-20.1,0-36.4,16.3-36.5,36.3c0,9.7,3.7,18.9,10.6,25.8
		c6.8,6.9,16,10.7,25.7,10.7l0.1,2.3v-2.3c20,0,36.3-16.3,36.4-36.3C119,39.2,102.7,22.9,82.7,22.8z"/>
	<polygon class="st1" points="82.2,95.5 82.9,95.5 82.6,98.5 82.2,95.5 	"/>
	<polygon class="st1" points="82.1,109.2 82.4,112.5 83.1,109.2 	"/>
</g>
</svg>
