<?xml version="1.0" encoding="utf-8"?>
<!-- Generator: Adobe Illustrator 24.0.1, SVG Export Plug-In . SVG Version: 6.00 Build 0)  -->
<svg version="1.1" id="레이어_1" xmlns="http://www.w3.org/2000/svg" xmlns:xlink="http://www.w3.org/1999/xlink" x="0px"
	 y="0px" viewBox="0 0 74 77" style="enable-background:new 0 0 74 77;" xml:space="preserve">
<style type="text/css">
	.st0{fill:#3D3A39;}
	.st1{fill:#FFFFFF;stroke:#000000;stroke-miterlimit:10;}
	.st2{fill:#FFFFFF;}
</style>
<g>
	<g>
		<path class="st0" d="M70.8,51.5C70.8,51.5,70.8,51.5,70.8,51.5l-3.8,0c-1.3,0-2.3-1.1-2.3-2.4l0.1-15.3c0-1.3,1.1-2.4,2.3-2.4
			l3.8,0c0.6,0,1.2,0.3,1.7,0.7c0.4,0.5,0.7,1,0.7,1.7l0,15.3C73.2,50.5,72.1,51.5,70.8,51.5z M67.1,33.5c-0.2,0-0.3,0.1-0.3,0.3
			l-0.1,15.3c0,0.2,0.1,0.3,0.3,0.3l3.8,0v1v-1c0.2,0,0.3-0.1,0.3-0.3l0.1-15.3c0-0.1-0.1-0.2-0.1-0.2c0,0-0.1-0.1-0.2-0.1
			L67.1,33.5z"/>
		<path class="st0" d="M70.3,33.5L70.3,33.5c-0.6,0-1-0.5-1-1l0.1-30c-1.5,0.2-4.1,1-4.1,3.9l-0.1,17.2l2.8,2.3
			c0.2,0.2,0.4,0.5,0.4,0.8l0,5.9c0,0.6-0.5,1-1,1l0,0c-0.6,0-1-0.5-1-1l0-5.5l-2.8-2.3c-0.2-0.2-0.4-0.5-0.4-0.8l0-17.7
			c0-4.7,4.7-6,7.2-6c0.3,0,0.5,0.1,0.7,0.3s0.3,0.4,0.3,0.7l-0.1,31.2C71.3,33.1,70.8,33.5,70.3,33.5z"/>
		<path class="st0" d="M8.5,51.3C8.5,51.3,8.5,51.3,8.5,51.3H6.6c-0.6,0-1.2-0.3-1.7-0.7c-0.4-0.5-0.7-1-0.7-1.7l0.7-31.7
			c-3.3-0.9-4.1-3.8-4.1-5.3l0-10c0-0.6,0.5-1,1-1l0,0c0.6,0,1,0.5,1,1L3,12c0,0.3,0,3,3.1,3.4c0.2,0,0.4,0.1,0.6,0.3
			c0.2,0.2,0.3,0.5,0.3,0.8L6.3,49c0,0.1,0.1,0.2,0.1,0.2c0,0,0.1,0.1,0.2,0.1h1.8l0,0c0.1,0,0.2,0,0.2-0.1s0.1-0.1,0.1-0.2
			L8.2,16.5c0-0.3,0.1-0.6,0.3-0.8c0.2-0.2,0.4-0.3,0.7-0.3c3.2-0.5,3.1-3.3,3.1-3.4l0-10.1c0-0.6,0.5-1,1-1l0,0c0.6,0,1,0.5,1,1
			l0,10.1c0.1,1.5-0.8,4.4-4.1,5.3L10.8,49c0,0.7-0.3,1.2-0.7,1.7C9.7,51.1,9.1,51.3,8.5,51.3z"/>
		<path class="st0" d="M7.7,11.4L7.7,11.4c-0.6,0-1-0.5-1-1l0-8.5c0-0.6,0.5-1,1-1l0,0c0.6,0,1,0.5,1,1l0,8.5
			C8.7,11,8.2,11.4,7.7,11.4z"/>
		<path class="st0" d="M13.3,11.4L13.3,11.4L2,11.4c-0.6,0-1-0.5-1-1s0.5-1,1-1l0,0l11.3,0c0.6,0,1,0.5,1,1
			C14.4,11,13.9,11.4,13.3,11.4z"/>
		<path class="st0" d="M37.1,50.1L37.1,50.1c-6.5,0-12.5-2.5-17-7.1c-4.5-4.5-7-10.5-7-16.9C13.2,13,24,2.3,37.1,2.3
			c6.5,0,12.5,2.5,17,7.1c4.5,4.5,7,10.5,7,16.9C61,39.4,50.3,50.1,37.1,50.1z M37.2,4.3c-12.1,0-21.9,9.8-22,21.8
			c0,5.9,2.2,11.3,6.4,15.5c4.1,4.2,9.6,6.4,15.5,6.5l0.1,1v-1c12,0,21.9-9.8,21.9-21.8c0-5.9-2.2-11.4-6.4-15.5
			C48.5,6.6,43,4.3,37.2,4.3z"/>
		<path class="st0" d="M37.1,44.2L37.1,44.2c-4.9,0-9.4-1.9-12.7-5.3s-5.2-7.9-5.2-12.7c0-9.9,8.1-17.9,18-17.9c10,0,18,8.1,18,18
			C55,36.1,47,44.2,37.1,44.2z M37.2,10.3c-8.8,0-15.9,7.1-16,15.9c0,4.3,1.6,8.3,4.6,11.3s7,4.7,11.2,4.7l0,1v-1
			C45.9,42.1,53,35,53,26.2C53,17.5,45.9,10.3,37.2,10.3z"/>
		<g>
			<path class="st0" d="M16,65.9H3.2V55.2h2.5v3.1h7.9v-3.1H16V65.9z M19.8,67.7h2.5v8.9H3.9v-8.9h2.5v2.2h13.4V67.7z M13.6,63.8
				v-3.4H5.7v3.4H13.6z M19.8,74.5v-2.6H6.4v2.6H19.8z M25.4,61.7h-3.1v4.8h-2.5V54.8h2.5v4.4h3.1V61.7z"/>
			<path class="st0" d="M37,73.2c2.1,0,4.4-0.4,5.7-1v2.3c-1.3,0.7-3.7,1.1-5.8,1.1h-8.7V55.6H41V58H30.8v6.3h9.8v2.3h-9.8v6.6
				L37,73.2L37,73.2z M50.2,66.2h-3.1v10.6h-2.5v-22h2.5v8.9h3.1V66.2z"/>
			<path class="st0" d="M52.3,60.7c0-3.3,2.7-5.6,6.9-5.6c4.2,0,6.9,2.3,6.9,5.6c0,3.3-2.7,5.6-6.9,5.6C55,66.3,52.3,64,52.3,60.7z
				 M54.1,68h18.4v8.6H54.1V68z M63.5,60.7c0-2.2-1.8-3.5-4.3-3.5c-2.6,0-4.4,1.3-4.4,3.5s1.8,3.5,4.4,3.5
				C61.8,64.2,63.5,62.9,63.5,60.7z M70,74.4v-4.2H56.7v4.2H70z M70,54.8h2.6v12H70V54.8z"/>
		</g>
	</g>
	<polygon class="st0" points="37.1,43.3 37,42.1 37.3,42.1 	"/>
	<path class="st1" d="M36.5,43.5"/>
	<path class="st2" d="M36.4,42.4"/>
	<polygon class="st0" points="37.1,49.3 37,48.1 37.3,48.1 	"/>
</g>
</svg>
