<?xml version="1.0" encoding="utf-8"?>
<!-- Generator: Adobe Illustrator 24.0.1, SVG Export Plug-In . SVG Version: 6.00 Build 0)  -->
<svg version="1.1" id="레이어_1" xmlns="http://www.w3.org/2000/svg" xmlns:xlink="http://www.w3.org/1999/xlink" x="0px"
	 y="0px" viewBox="0 0 320 200" style="enable-background:new 0 0 320 200;" xml:space="preserve">
<style type="text/css">
	.st0{fill:#FFF3EB;}
	.st1{fill:#FFB879;}
	.st2{fill:#FFB879;stroke:#000000;stroke-miterlimit:10;}
</style>
<rect x="0.5" y="0.5" class="st0" width="320" height="200"/>
<g>
	<g>
		<path class="st1" d="M193.67,112.63C193.67,112.63,193.66,112.63,193.67,112.63l-3.84-0.01c-1.3,0-2.35-1.06-2.35-2.36l0.05-15.33
			c0-1.29,1.06-2.35,2.35-2.35l3.84,0.01c0.63,0,1.22,0.25,1.66,0.69c0.44,0.45,0.69,1.04,0.68,1.67l-0.04,15.33
			C196.02,111.57,194.96,112.63,193.67,112.63z M189.88,94.61c-0.17,0-0.31,0.14-0.31,0.31l-0.05,15.34c0,0.17,0.14,0.31,0.31,0.31
			l3.83,0.01v1.02v-1.02c0.17,0,0.31-0.14,0.31-0.31l0.05-15.34c0-0.11-0.05-0.18-0.09-0.22s-0.11-0.09-0.22-0.09L189.88,94.61z"/>
		<path class="st1" d="M193.08,94.65L193.08,94.65c-0.57,0-1.02-0.46-1.02-1.02l0.09-30.05c-1.51,0.23-4.13,1.04-4.14,3.87
			l-0.05,17.19l2.78,2.26c0.24,0.19,0.38,0.49,0.38,0.79l-0.02,5.93c0,0.56-0.46,1.02-1.02,1.02l0,0c-0.56,0-1.02-0.46-1.02-1.02
			l0.01-5.45l-2.78-2.26c-0.23-0.2-0.37-0.49-0.37-0.79l0.05-17.68c0.01-4.74,4.72-6,7.2-6c0.28-0.03,0.53,0.11,0.72,0.3
			c0.19,0.19,0.3,0.45,0.3,0.72l-0.1,31.17C194.1,94.2,193.64,94.65,193.08,94.65z"/>
		<path class="st1" d="M131.31,112.44C131.3,112.44,131.3,112.44,131.31,112.44h-1.84c-0.63,0-1.22-0.25-1.66-0.7
			c-0.44-0.45-0.69-1.04-0.68-1.67l0.74-31.69c-3.3-0.88-4.1-3.79-4.05-5.32l0.03-10.02c0-0.56,0.46-1.02,1.02-1.02l0,0
			c0.56,0,1.02,0.46,1.02,1.02l-0.03,10.06c-0.01,0.33,0.03,2.98,3.13,3.43c0.23,0.03,0.45,0.13,0.61,0.29
			c0.2,0.2,0.32,0.47,0.32,0.75l-0.76,32.53c0,0.09,0.06,0.17,0.09,0.2c0.03,0.03,0.11,0.09,0.22,0.09h1.83l0,0
			c0.11,0,0.18-0.05,0.22-0.09c0.04-0.04,0.09-0.11,0.09-0.22l-0.56-32.51c0-0.28,0.11-0.55,0.3-0.75c0.18-0.18,0.42-0.28,0.68-0.29
			c3.15-0.47,3.11-3.25,3.1-3.37l0.03-10.09c0-0.56,0.46-1.02,1.02-1.02l0,0c0.56,0,1.02,0.46,1.02,1.02l-0.03,10.06
			c0.05,1.49-0.78,4.4-4.07,5.26l0.55,31.68c0,0.65-0.25,1.24-0.69,1.68C132.52,112.2,131.93,112.44,131.31,112.44z"/>
		<path class="st1" d="M130.5,72.54L130.5,72.54c-0.57,0-1.02-0.46-1.02-1.02l0.03-8.47c0-0.56,0.46-1.02,1.02-1.02l0,0
			c0.56,0,1.02,0.46,1.02,1.02l-0.03,8.48C131.52,72.09,131.06,72.54,130.5,72.54z"/>
		<path class="st1" d="M136.16,72.56L136.16,72.56l-11.32-0.03c-0.56,0-1.02-0.46-1.02-1.02c0-0.56,0.46-1.02,1.02-1.02l0,0
			l11.32,0.03c0.56,0,1.02,0.46,1.02,1.02C137.18,72.11,136.72,72.56,136.16,72.56z"/>
		<path class="st1" d="M159.94,111.25h-0.07c-6.39-0.02-12.39-2.53-16.9-7.06c-4.5-4.53-6.98-10.55-6.96-16.94
			c0.04-13.15,10.77-23.85,23.92-23.85c6.47,0.02,12.47,2.52,16.98,7.06c4.5,4.53,6.98,10.55,6.96,16.94
			C183.82,100.55,173.09,111.25,159.94,111.25z M160,65.44c-12.1,0-21.92,9.79-21.95,21.82c-0.02,5.85,2.24,11.35,6.36,15.49
			c4.12,4.15,9.61,6.44,15.46,6.46l0.07,1.02v-1.02c12.03,0,21.85-9.79,21.88-21.82c0.02-5.85-2.24-11.35-6.36-15.49
			C171.34,67.75,165.85,65.46,160,65.44z"/>
		<path class="st1" d="M159.94,105.27h-0.06c-4.79-0.01-9.3-1.89-12.68-5.29c-3.38-3.4-5.23-7.91-5.22-12.71
			c0.03-9.87,8.08-17.9,17.95-17.9c9.95,0.03,17.98,8.11,17.95,18C177.85,97.24,169.8,105.27,159.94,105.27z M159.98,71.41
			c-8.8,0-15.93,7.12-15.96,15.86c-0.01,4.25,1.63,8.25,4.63,11.26c3,3.01,6.99,4.68,11.24,4.69l0.05,1.02v-1.02
			c8.75,0,15.88-7.12,15.91-15.86C175.87,78.6,168.76,71.44,159.98,71.41z"/>
		<g>
			<path class="st1" d="M138.87,126.98h-12.86v-10.62h2.5v3.09h7.86v-3.09h2.5V126.98z M142.66,128.83h2.5v8.87h-18.4v-8.87h2.5
				v2.19h13.4V128.83z M136.37,124.89v-3.4h-7.86v3.4H136.37z M142.66,135.66v-2.63h-13.4v2.63H142.66z M148.25,122.78h-3.09v4.84
				h-2.55v-11.65h2.55v4.36h3.09V122.78z"/>
			<path class="st1" d="M159.8,134.32c2.09,0,4.36-0.41,5.7-1.03v2.32c-1.34,0.67-3.66,1.06-5.77,1.06h-8.66v-19.9h12.71v2.35
				h-10.17v6.26h9.77v2.35h-9.77v6.6L159.8,134.32L159.8,134.32z M173.04,127.34h-3.09v10.64h-2.55v-22.01h2.55v8.92h3.09V127.34z"
				/>
			<path class="st1" d="M175.13,121.8c0-3.3,2.68-5.59,6.91-5.59c4.2,0,6.88,2.29,6.88,5.59c0,3.32-2.68,5.59-6.88,5.59
				C177.81,127.39,175.13,125.12,175.13,121.8z M176.96,129.14h18.4v8.56h-18.4V129.14z M186.37,121.8c0-2.19-1.78-3.48-4.33-3.48
				c-2.58,0-4.36,1.29-4.36,3.48c0,2.19,1.78,3.48,4.36,3.48C184.59,125.28,186.37,123.99,186.37,121.8z M192.81,135.53v-4.23h-13.3
				v4.23H192.81z M192.81,115.97h2.55v11.96h-2.55V115.97z"/>
		</g>
	</g>
	<polygon class="st1" points="159.93,104.37 159.84,103.22 160.11,103.22 	"/>
	<path class="st2" d="M159.36,104.65"/>
	<path class="st1" d="M159.2,103.53"/>
	<polygon class="st1" points="159.92,110.37 159.82,109.21 160.11,109.21 	"/>
</g>
</svg>
